<svg id="user-avatar-filled-alt-svgrepo-com" xmlns="http://www.w3.org/2000/svg" width="39" height="39" viewBox="0 0 39 39">
  <path id="Tracé_1" data-name="Tracé 1" d="M17.068,8a6.068,6.068,0,1,0,6.068,6.068A6.068,6.068,0,0,0,17.068,8Z" transform="translate(2.349 1.708)" fill="#0c3655"/>
  <path id="Tracé_2" data-name="Tracé 2" d="M18.989,2A16.989,16.989,0,1,0,35.978,18.989,16.989,16.989,0,0,0,18.989,2Zm9.7,27.821a6.069,6.069,0,0,0-6.058-5.978H15.349A6.069,6.069,0,0,0,9.29,29.821a14.562,14.562,0,1,1,19.4,0Z" transform="translate(0.427 0.427)" fill="#0c3655"/>
  <rect id="_Transparent_Rectangle_" data-name="&lt;Transparent Rectangle&gt;" width="39" height="39" fill="none"/>
</svg>
