<!DOCTYPE svg PUBLIC "-//W3C//DTD SVG 1.1//EN" "http://www.w3.org/Graphics/SVG/1.1/DTD/svg11.dtd">

<!-- Uploaded to: SVG Repo, www.svgrepo.com, Transformed by: SVG Repo Mixer Tools -->
<svg fill="#ffffff" width="16px" height="16px" viewBox="-51.2 -51.2 614.40 614.40" id="Layer_1" data-name="Layer 1" xmlns="http://www.w3.org/2000/svg" stroke="#ffffff">
    <!--  Dimensions originale : height="800px" width="800px" -->
<g id="SVGRepo_bgCarrier" stroke-width="0" transform="translate(74.24000000000001,74.24000000000001), scale(0.71)">

<rect x="-51.2" y="-51.2" width="614.40" height="614.40" rx="307.2" fill="#000000" strokewidth="0"/>

</g>

<g id="SVGRepo_tracerCarrier" stroke-linecap="round" stroke-linejoin="round"/>

<g id="SVGRepo_iconCarrier">

<path d="M480,257.35c0-123.7-100.3-224-224-224s-224,100.3-224,224c0,111.8,81.9,204.47,189,221.29V322.12H164.11V257.35H221V208c0-56.13,33.45-87.16,84.61-87.16,24.51,0,50.15,4.38,50.15,4.38v55.13H327.5c-27.81,0-36.51,17.26-36.51,35v42h62.12l-9.92,64.77H291V478.66C398.1,461.85,480,369.18,480,257.35Z" fill-rule="evenodd"/>

</g>

</svg>